<svg xmlns="http://www.w3.org/2000/svg" width="54" height="46"><defs><linearGradient x1="50.0555556%" y1="94.1503497%" x2="50.0555556%" y2=".43653846%" id="a"><stop stop-color="#78D431" offset="0%"/><stop stop-color="#9EEE69" offset="100%"/><stop stop-color="#9EEE69" offset="100%"/></linearGradient><linearGradient x1="50.0888889%" y1="93.5351252%" x2="50.0888889%" y2="-.0360587%" id="b"><stop stop-color="#E4E6E6" offset="0%"/><stop stop-color="#F5F5FF" offset="100%"/></linearGradient></defs><g fill="none" fill-rule="evenodd"><g fill-rule="nonzero"><path d="M0 15.3063111c0 4.5918933 2.48460866 8.7869563 6.3244584 11.5647683.33881027.2267602.50821541.5669005.50821541 1.0204209 0 .11338-.05646838.2834502-.05646838.3968303-.28234189 1.1338008-.7905573 3.0045721-.84702568 3.0612621-.05646838.1700701-.11293676.2834502-.11293676.4535204 0 .3401402.28234189.6235905.62115216.6235905.11293676 0 .22587352-.0566901.33881028-.1133801l4.00925487-2.3242918c.2823419-.1700701.6211522-.2834501.9599624-.2834501.1694051 0 .3952786 0 .5646838.05669 1.8634565.5669004 3.8963182.8503506 5.9856482.8503506 10.1078397 0 18.2957546-6.8594949 18.2957546-15.3063111C36.5915093 6.85949498 28.4035944 0 18.2957547 0 8.18791489 0 0 6.85949498 0 15.3063111" fill="url(#a)" transform="translate(1 3)"/><path d="M35.3424015 39.6205315c1.7463017 0 3.4362709-.2284642 4.9572434-.6853925.1126645-.0571161.2816614-.0571161.4506584-.0571161.2816616 0 .5633231.1142321.7886523.2284642l3.3236064 1.9419456c.1126646.057116.1689969.114232.2816615.114232.2816615 0 .5069908-.2284642.5069908-.5140444 0-.114232-.0563323-.2284642-.0563323-.3998123 0-.057116-.4506585-1.5992493-.6759878-2.570222-.0563322-.1142322-.0563322-.2284642-.0563322-.3426963 0-.3426962.1689969-.6282765.4506585-.8567406 3.2109417-2.3417579 5.2389048-5.8258367 5.2389048-9.7097278 0-7.0823896-6.8162095-12.8511102-15.2097238-12.8511102-8.3935142 0-15.2097237 5.7116045-15.2097237 12.8511102 0 7.0823896 6.8162095 12.8511102 15.2097237 12.8511102z" fill="url(#b)" transform="translate(1 3)"/><path d="M15.5484314 13.3646997c0 1.322274-1.0389295 2.3690743-2.3512617 2.3690743-1.312332 0-2.35126158-1.0468003-2.35126158-2.3690743 0-1.32227393 1.03892958-2.36907418 2.35126158-2.36907418 1.3123322 0 2.3512617 1.04680025 2.3512617 2.36907418m12.1971698 0c0 1.322274-1.0389296 2.3690743-2.3512617 2.3690743s-2.3512616-1.0468003-2.3512616-2.3690743c0-1.32227393 1.0389295-2.36907418 2.3512616-2.36907418s2.3512617 1.04680025 2.3512617 2.36907418" fill="#187E28"/><path d="M39.5019094 25.8023395c0 1.1516333.9143795 2.0729399 2.0573539 2.0729399s2.0573539-.9213066 2.0573539-2.0729399c0-1.1516333-.9143795-2.07294-2.0573539-2.07294s-2.0573539.9213067-2.0573539 2.07294m-10.1398158 0c0 1.1516333.9143794 2.0729399 2.0573539 2.0729399 1.1429744 0 2.057354-.9213066 2.057354-2.0729399 0-1.1516333-.9143796-2.07294-2.057354-2.07294-1.1429745 0-2.0573539.9213067-2.0573539 2.07294" fill="#858C8C"/></g></g></svg>